<mxfile host="app.diagrams.net" modified="2022-11-12T12:59:27.087Z" agent="5.0 (Macintosh; Intel Mac OS X 10_15_7) AppleWebKit/537.36 (KHTML, like Gecko) Chrome/107.0.0.0 Safari/537.36" etag="p6qz6ODD7e2nnyewbksk" version="20.5.1" type="github">
  <diagram id="jk84KoCiqGRbvonOO5nR" name="Page-1">
    <mxGraphModel dx="931" dy="710" grid="0" gridSize="10" guides="1" tooltips="1" connect="1" arrows="1" fold="1" page="1" pageScale="1" pageWidth="500" pageHeight="200" background="#EFF1F3" math="0" shadow="0">
      <root>
        <mxCell id="0" />
        <mxCell id="1" parent="0" />
        <mxCell id="JJsRY39guN2tr0HRqhfe-2" value="" style="shape=image;verticalLabelPosition=bottom;labelBackgroundColor=default;verticalAlign=top;aspect=fixed;imageAspect=0;image=data:image/svg+xml,PHN2ZyB4bWxuczp4bGluaz0iaHR0cDovL3d3dy53My5vcmcvMTk5OS94bGluayIgeG1sbnM9Imh0dHA6Ly93d3cudzMub3JnLzIwMDAvc3ZnIiBoZWlnaHQ9IjIwMCIgd2lkdGg9IjIwMCIgdmVyc2lvbj0iMS4xIiB2aWV3Qm94PSIwIDAgMTAyNCAxMDI0IiBjbGFzcz0iaWNvbiI+PHBhdGggZmlsbD0iIzRBOTE5QiIgZD0iTTkxNS4yIDg0NC44bC02LjQtOC41MzMzMzNjLTYuNC0xMC42NjY2NjctMTIuOC0xOS4yLTIxLjMzMzMzMy0yNy43MzMzMzQtNi40LTYuNC0yMS4zMzMzMzMtMTQuOTMzMzMzLTIzLjQ2NjY2Ny0yMy40NjY2NjYgNi40IDAgMTAuNjY2NjY3IDAgMTQuOTMzMzMzLTIuMTMzMzM0IDguNTMzMzMzLTIuMTMzMzMzIDE0LjkzMzMzMyAwIDIzLjQ2NjY2Ny0yLjEzMzMzMyA0LjI2NjY2NyAwIDYuNC0yLjEzMzMzMyAxMC42NjY2NjctMi4xMzMzMzN2LTIuMTMzMzM0Yy00LjI2NjY2Ny00LjI2NjY2Ny02LjQtMTAuNjY2NjY3LTEwLjY2NjY2Ny0xNC45MzMzMzMtMTAuNjY2NjY3LTEyLjgtMjEuMzMzMzMzLTIzLjQ2NjY2Ny0zNC4xMzMzMzMtMzQuMTMzMzMzLTYuNC02LjQtMTQuOTMzMzMzLTEwLjY2NjY2Ny0yMS4zMzMzMzQtMTQuOTMzMzM0LTIuMTMzMzMzLTIuMTMzMzMzLTYuNC0yLjEzMzMzMy04LjUzMzMzMy02LjQtMi4xMzMzMzMtNi40LTYuNC0xMi44LTYuNC0xOS4yLTQuMjY2NjY3LTE0LjkzMzMzMy0xMC42NjY2NjctMjkuODY2NjY3LTE0LjkzMzMzMy00NC44LTIuMTMzMzMzLTEwLjY2NjY2Ny00LjI2NjY2Ny0xOS4yLTguNTMzMzM0LTI5Ljg2NjY2Ni0xNy4wNjY2NjctNDAuNTMzMzMzLTQyLjY2NjY2Ny03NC42NjY2NjctNzguOTMzMzMzLTEwMC4yNjY2NjctOC41MzMzMzMtNi40LTE3LjA2NjY2Ny0xMC42NjY2NjctMjcuNzMzMzMzLTEyLjgtNi40IDAtMTAuNjY2NjY3LTIuMTMzMzMzLTE3LjA2NjY2Ny0yLjEzMzMzMy00LjI2NjY2Ny0yLjEzMzMzMy02LjQtNi40LTguNTMzMzMzLTguNTMzMzM0LTEwLjY2NjY2Ny04LjUzMzMzMy0yMy40NjY2NjctMTQuOTMzMzMzLTM2LjI2NjY2Ny0xOS4yLTguNTMzMzMzLTIuMTMzMzMzLTE3LjA2NjY2NyAyLjEzMzMzMy0xOS4yIDEwLjY2NjY2Ny04LjUzMzMzMyAxNC45MzMzMzMgNi40IDMyIDEwLjY2NjY2NyA0MC41MzMzMzMgNC4yNjY2NjcgNi40IDYuNCAxMi44IDguNTMzMzMzIDE5LjIgMi4xMzMzMzMgNC4yNjY2NjcgMi4xMzMzMzMgOC41MzMzMzMgMi4xMzMzMzMgMTIuOCAyLjEzMzMzMyAxMC42NjY2NjcgNC4yNjY2NjcgMjMuNDY2NjY3IDguNTMzMzM0IDM0LjEzMzMzNCAyLjEzMzMzMyA2LjQgNC4yNjY2NjcgMTAuNjY2NjY3IDYuNCAxNC45MzMzMzMgMi4xMzMzMzMgMi4xMzMzMzMgNC4yNjY2NjcgNi40IDQuMjY2NjY2IDguNTMzMzMzLTIuMTMzMzMzIDYuNC02LjQgMTAuNjY2NjY3LTYuNCAxNy4wNjY2NjctMTAuNjY2NjY3IDI1LjYtMTAuNjY2NjY3IDU1LjQ2NjY2Ny0yLjEzMzMzMyA4My4yIDIuMTMzMzMzIDYuNCAxMC42NjY2NjcgMjEuMzMzMzMzIDIxLjMzMzMzMyAxNy4wNjY2NjcgMTAuNjY2NjY3LTQuMjY2NjY3IDEwLjY2NjY2Ny0xNy4wNjY2NjcgMTQuOTMzMzM0LTI5Ljg2NjY2NyAwLTIuMTMzMzMzIDIuMTMzMzMzLTQuMjY2NjY3IDIuMTMzMzMzLTYuNCAyLjEzMzMzMyA2LjQgNC4yNjY2NjcgMTQuOTMzMzMzIDYuNCAyMS4zMzMzMzMgNi40IDEyLjggMTQuOTMzMzMzIDI1LjYgMjUuNiAzNi4yNjY2NjcgNC4yNjY2NjcgNi40IDEwLjY2NjY2NyAxMC42NjY2NjcgMTQuOTMzMzMzIDE3LjA2NjY2NyAxMC42NjY2NjcgOC41MzMzMzMgNC4yNjY2NjcgMTAuNjY2NjY3IDgzLjIgNDkuMDY2NjY2IDAgMCAzMiAxNC45MzMzMzMgNDYuOTMzMzM0IDIxLjMzMzMzNCAxNC45MzMzMzMgNi40IDI5Ljg2NjY2NyAxMC42NjY2NjcgNDQuOCAxNC45MzMzMzMgMi4xMzMzMzMgMCAyLjEzMzMzMy00LjI2NjY2NyAyLjEzMzMzMy02LjR6TTY5My4zMzMzMzMgNTUwLjRjLTIuMTMzMzMzLTguNTMzMzMzLTYuNC0xOS4yLTEwLjY2NjY2Ni0yNS42LTYuNC02LjQgMi4xMzMzMzMtMTIuOCAxMC42NjY2NjYtMTAuNjY2NjY3aDIuMTMzMzM0YzQuMjY2NjY3IDAgNi40IDQuMjY2NjY3IDguNTMzMzMzIDYuNCAwIDIuMTMzMzMzIDIuMTMzMzMzIDIuMTMzMzMzIDIuMTMzMzMzIDQuMjY2NjY3IDIuMTMzMzMzIDEwLjY2NjY2Ny0yLjEzMzMzMyAyMy40NjY2NjctMTIuOCAyNS42eiIvPjxwYXRoIGZpbGw9IiM0QTkxOUIiIGQ9Ik00Ni45MzMzMzMgMjkwLjEzMzMzM2EzNzEuMiAxMTkuNDY2NjY3IDAgMSAwIDc0Mi40IDAgMzcxLjIgMTE5LjQ2NjY2NyAwIDEgMC03NDIuNCAwWiIvPjxwYXRoIGZpbGw9IiM0QTkxOUIiIGQ9Ik02NzguNCA3OTMuNmgtNi40Yy0xNC45MzMzMzMgMC01My4zMzMzMzMtNi40LTc2LjgtNTUuNDY2NjY3di00LjI2NjY2NmMtNi40LTE3LjA2NjY2Ny0xMC42NjY2NjctMzYuMjY2NjY3LTEwLjY2NjY2Ny01NS40NjY2NjctNDkuMDY2NjY3IDguNTMzMzMzLTEwNi42NjY2NjcgMTIuOC0xNjYuNCAxMi44LTE2NC4yNjY2NjcgMC0zMDIuOTMzMzMzLTM0LjEzMzMzMy0zNTItODEuMDY2NjY3LTguNTMzMzMzLTYuNC0xOS4yLTIuMTMzMzMzLTE5LjIgOC41MzMzMzR2MTEzLjA2NjY2NmMwIDY2LjEzMzMzMyAxNjYuNCAxMTkuNDY2NjY3IDM3MS4yIDExOS40NjY2NjcgMTEwLjkzMzMzMyAwIDIxMS4yLTE0LjkzMzMzMyAyNzcuMzMzMzM0LTQwLjUzMzMzMy02LjQtNC4yNjY2NjctMTAuNjY2NjY3LTEwLjY2NjY2Ny0xNy4wNjY2NjctMTcuMDY2NjY3ek00MTguMTMzMzMzIDYzMS40NjY2NjdjNjQgMCAxMjMuNzMzMzMzLTQuMjY2NjY3IDE3NC45MzMzMzQtMTQuOTMzMzM0di0yLjEzMzMzM2MwLTIuMTMzMzMzLTIuMTMzMzMzLTQuMjY2NjY3LTIuMTMzMzM0LTYuNC00LjI2NjY2Ny0xMi44LTYuNC0yNS42LTEwLjY2NjY2Ni00MC41MzMzMzMgMC0yLjEzMzMzMy0yLjEzMzMzMy02LjQtMi4xMzMzMzQtOC41MzMzMzQgMC0yLjEzMzMzMy0yLjEzMzMzMy0yLjEzMzMzMy0yLjEzMzMzMy00LjI2NjY2NnYtNC4yNjY2NjdsLTIuMTMzMzMzLTIuMTMzMzMzYy02LjQtMTIuOC0yNy43MzMzMzMtNDYuOTMzMzMzLTE0LjkzMzMzNC04Ny40NjY2NjctNDQuOCA2LjQtOTEuNzMzMzMzIDguNTMzMzMzLTE0Mi45MzMzMzMgOC41MzMzMzMtMTY0LjI2NjY2NyAwLTMwMi45MzMzMzMtMzQuMTMzMzMzLTM1Mi04MS4wNjY2NjYtOC41MzMzMzMtNi40LTE5LjItMi4xMzMzMzMtMTkuMiA4LjUzMzMzM1Y1MTJjMCA2Ni4xMzMzMzMgMTY2LjQgMTE5LjQ2NjY2NyAzNzMuMzMzMzMzIDExOS40NjY2Njd6Ii8+PC9zdmc+;" parent="1" vertex="1">
          <mxGeometry x="196" y="57" width="112" height="112" as="geometry" />
        </mxCell>
        <mxCell id="JJsRY39guN2tr0HRqhfe-4" value="&lt;font color=&quot;#4a919b&quot; style=&quot;font-size: 19px;&quot;&gt;mysql&lt;/font&gt;" style="text;html=1;strokeColor=none;fillColor=none;align=center;verticalAlign=middle;whiteSpace=wrap;rounded=0;" parent="1" vertex="1">
          <mxGeometry x="213" y="149" width="60" height="30" as="geometry" />
        </mxCell>
        <mxCell id="fOI4Vf1cDIq4OWJkxFJw-1" value="" style="shape=image;verticalLabelPosition=bottom;labelBackgroundColor=default;verticalAlign=top;aspect=fixed;imageAspect=0;image=data:image/svg+xml,PHN2ZyB4bWxuczp4bGluaz0iaHR0cDovL3d3dy53My5vcmcvMTk5OS94bGluayIgeG1sbnM9Imh0dHA6Ly93d3cudzMub3JnLzIwMDAvc3ZnIiBoZWlnaHQ9IjIwMCIgd2lkdGg9IjIwMCIgdmVyc2lvbj0iMS4xIiB2aWV3Qm94PSIwIDAgMTAyNCAxMDI0IiBjbGFzcz0iaWNvbiI+PHBhdGggZmlsbD0iI0ZGRkZGRiIgZD0iTTEwMDEuOTQ2ODc3IDEwMDEuOTQ2ODc3SDIyLjA1MzEyM1YyMi4wNTMxMjNoOTc5Ljg5Mzc1NHY5NzkuODkzNzU0Ii8+PHBhdGggZmlsbD0iIzg4ODg4OCIgZD0iTTEwMDEuOTQ2ODc3IDEwMjRIMjIuMDUzMTIzYy0xMi40OTY3NyAwLTIyLjA1MzEyMy05LjU1NjM1My0yMi4wNTMxMjMtMjIuMDUzMTIzVjIyLjA1MzEyM2MwLTEyLjQ5Njc3IDkuNTU2MzUzLTIyLjA1MzEyMyAyMi4wNTMxMjMtMjIuMDUzMTIzaDk3OS44OTM3NTRjMTIuNDk2NzcgMCAyMi4wNTMxMjMgOS41NTYzNTMgMjIuMDUzMTIzIDIyLjA1MzEyM3Y5NzkuODkzNzU0YzAgMTIuNDk2NzctOS41NTYzNTMgMjIuMDUzMTIzLTIyLjA1MzEyMyAyMi4wNTMxMjN6TTQ0LjEwNjI0NiA5NzkuODkzNzU0aDkzNS43ODc1MDhWNDQuMTA2MjQ2SDQ0LjEwNjI0NnY5MzUuNzg3NTA4eiIvPjxwYXRoIGZpbGw9IiMwNEJFQkQiIGQ9Ik00NDguNDEzNDk2IDMzMy4wMDIxNTRIMjU0LjM0NjAxNlYyMjQuMjA2NzQ4aDUxNS4zMDc5Njh2MTA4Ljc5NTQwNkg1NzQuMTE2Mjk2djQ2Ni43OTEwOThINDQ4LjQxMzQ5NlYzMzMuMDAyMTU0eiIvPjwvc3ZnPg==;" parent="1" vertex="1">
          <mxGeometry x="302" y="22" width="35" height="35" as="geometry" />
        </mxCell>
        <mxCell id="fOI4Vf1cDIq4OWJkxFJw-2" value="" style="shape=image;verticalLabelPosition=bottom;verticalAlign=top;imageAspect=0;aspect=fixed;image=data:image/svg+xml,PHN2ZyB4bWxuczp4bGluaz0iaHR0cDovL3d3dy53My5vcmcvMTk5OS94bGluayIgeG1sbnM9Imh0dHA6Ly93d3cudzMub3JnLzIwMDAvc3ZnIiBoZWlnaHQ9IjIwMCIgd2lkdGg9IjIwMCIgdmVyc2lvbj0iMS4xIiB2aWV3Qm94PSIwIDAgMTAyNCAxMDI0IiBjbGFzcz0iaWNvbiI+PHBhdGggZmlsbD0iIzRBOTE5QiIgZD0iTTQ2OS40OTY5MTQgNTYxLjcyMDAxNWExOS43MzAyNDMgMTkuNzMwMjQzIDAgMCAxLTE0LjAwODQ3My01LjcyMTc3MUwzMTMuODI1Mjk3IDQxNC4zMzUxYTE5LjczMDI0MyAxOS43MzAyNDMgMCAwIDEgMC0yNy44MTk2NDIgMTkuNzMwMjQzIDE5LjczMDI0MyAwIDAgMSAyNy44MTk2NDMgMGwxNDEuODYwNDQ2IDE0MS44NjA0NDZhMTkuNzMwMjQzIDE5LjczMDI0MyAwIDAgMSAwIDI3LjgxOTY0MyAxOS43MzAyNDMgMTkuNzMwMjQzIDAgMCAxLTE0LjAwODQ3MiA1LjUyNDQ2OHpNNDA5LjUxNjk3NSA2MjEuNjk5OTUzYTE5LjczMDI0MyAxOS43MzAyNDMgMCAwIDEtMTQuMDA4NDcyLTUuNzIxNzdMMjUzLjY0ODA1NiA0NzMuNTI1ODI5YTE5LjczMDI0MyAxOS43MzAyNDMgMCAwIDEgMC0yNy44MTk2NDIgMTkuNzMwMjQzIDE5LjczMDI0MyAwIDAgMSAyOC4wMTY5NDUgMGwxNDEuODYwNDQ3IDE0MS44NjA0NDZhMTkuNzMwMjQzIDE5LjczMDI0MyAwIDAgMS0xNC4wMDg0NzMgMzMuNTQxNDEzek0zNDkuNTM3MDM3IDY4MS42Nzk4OTFhMTkuNzMwMjQzIDE5LjczMDI0MyAwIDAgMS0xNC4wMDg0NzMtNS43MjE3N2wtMTQxLjg2MDQ0Ni0xNDEuNjYzMTQ0YTE5LjczMDI0MyAxOS43MzAyNDMgMCAxIDEgMjguMDE2OTQ1LTI4LjAxNjk0NWwxNDEuODYwNDQ2IDE0MS44NjA0NDdhMTkuNzMwMjQzIDE5LjczMDI0MyAwIDAgMS0xNC4wMDg0NzIgMzMuNTQxNDEyek0yODkuNTU3MDk4IDc0MS44NTcxMzJhMTkuNzMwMjQzIDE5LjczMDI0MyAwIDAgMS0xNC4wMDg0NzItNS45MTkwNzNsLTE0MS44NjA0NDYtMTQxLjY2MzE0M2ExOS43MzAyNDMgMTkuNzMwMjQzIDAgMCAxIDI4LjAxNjk0NS0yOC4wMTY5NDVsMTQxLjY2MzE0MyAxNDEuODYwNDQ2YTE5LjczMDI0MyAxOS43MzAyNDMgMCAwIDEtMTMuODExMTcgMzMuNzM4NzE1eiIvPjxwYXRoIGZpbGw9IiM0QTkxOUIiIGQ9Ik0zNDAuODU1NzMgOTc4LjgxNzM0OWE2OC42NjEyNDUgNjguNjYxMjQ1IDAgMCAxLTQ4LjczMzctMTkuNzMwMjQzTDY1LjYxODg0MiA3MzIuMTg5MzEzYTY5LjI1MzE1MyA2OS4yNTMxNTMgMCAwIDEgMC05OC42NTEyMTRMNTAyLjA1MTgxNCAxOTcuMzAyNDI5YTY5LjI1MzE1MyA2OS4yNTMxNTMgMCAwIDEgOTcuNjY0NzAzIDBsMjI2LjUwMzE4OCAyMjcuMDk1MDk1YTY5LjI1MzE1MyA2OS4yNTMxNTMgMCAwIDEgMCA5Ny42NjQ3MDNMMzg5Ljc4NjczMiA5NTguNDk1MTk5YTY5LjA1NTg1IDY5LjA1NTg1IDAgMCAxLTQ4LjkzMTAwMiAyMC4zMjIxNXpNNTUwLjk4MjgxNyAyMTcuMDMyNjcyYTI4LjYwODg1MiAyOC42MDg4NTIgMCAwIDAtMjAuOTE0MDU4IDguNjgxMzA3TDkzLjQzODQ4NCA2NjIuMzQ0MjUzYTI5Ljc5MjY2NyAyOS43OTI2NjcgMCAwIDAgMCA0MS44MjgxMTVsMjI2LjUwMzE4OSAyMjYuNTAzMTg5YTMwLjU4MTg3NiAzMC41ODE4NzYgMCAwIDAgNDEuODI4MTE0IDBMNzk4LjQwMDA2MiA0OTMuMjU2MDcyYTI5Ljc5MjY2NyAyOS43OTI2NjcgMCAwIDAgMC00MS44MjgxMTVMNTcyLjI5MTQ3OSAyMjUuOTExMjgxYTI5LjAwMzQ1NyAyOS4wMDM0NTcgMCAwIDAtMjEuMzA4NjYyLTguODc4NjA5ek05NjUuNTE1MjE5IDQwMC45MTg1MzVhNTkuMTkwNzI5IDU5LjE5MDcyOSAwIDAgMS00MS44MjgxMTQtMTcuMTY1MzExTDY0MC4zNjA4MTcgMTAwLjQyNjkzNmE1OS4xOTA3MjkgNTkuMTkwNzI5IDAgMCAxIDAtODMuNjU2MjMgNjAuNzY5MTQ4IDYwLjc2OTE0OCAwIDAgMSA4My42NTYyMyAwbDI4My4zMjYyODcgMjgzLjMyNjI4OGE1OS4xOTA3MjkgNTkuMTkwNzI5IDAgMCAxLTQxLjgyODExNSAxMDAuODIxNTQxeiBtLTEzLjgxMTE3LTQ1Ljc3NDE2M2ExOS43MzAyNDMgMTkuNzMwMjQzIDAgMSAwIDI3LjgxOTY0My0yNy44MTk2NDNMNjk2LjE5NzQwNCA0NC41OTAzNDlhMTkuNzMwMjQzIDE5LjczMDI0MyAwIDAgMC0yNy44MTk2NDIgMCAxOS43MzAyNDMgMTkuNzMwMjQzIDAgMCAwIDAgMjcuODE5NjQyTDk1MS43MDQwNDkgMzU1LjE0NDM3MnoiLz48cGF0aCBmaWxsPSIjNEE5MTlCIiBkPSJNMTg5LjcyMjA3IDk1Mi45NzA3MzFhMTkuNzMwMjQzIDE5LjczMDI0MyAwIDAgMS0xNC4wMDg0NzMtNS45MTkwNzNsLTk4LjY1MTIxNC05OC42NTEyMTRhMTkuNzMwMjQzIDE5LjczMDI0MyAwIDAgMSAwLTI4LjAxNjk0NWw1Mi40ODI0NDYtNTIuMjg1MTQ0YTE5LjczMDI0MyAxOS43MzAyNDMgMCAwIDEgMjcuODE5NjQyIDBsOTguNjUxMjE1IDk4LjY1MTIxNWExOS43MzAyNDMgMTkuNzMwMjQzIDAgMCAxIDUuOTE5MDcyIDE0LjAwODQ3MiAxOS43MzAyNDMgMTkuNzMwMjQzIDAgMCAxLTUuOTE5MDcyIDEzLjgxMTE3TDIwMy43MzA1NDIgOTQ3LjA1MTY1OGExOS43MzAyNDMgMTkuNzMwMjQzIDAgMCAxLTE0LjAwODQ3MiA1LjkxOTA3M3pNMTE4LjQ5NTg5MyA4MzQuMzkxOTcxbDcwLjgzMTU3MiA3MC44MzE1NzIgMjQuNDY1NTAxLTI0LjQ2NTUwMS03MC40MzY5NjctNzAuODMxNTcyeiIvPjxwYXRoIGZpbGw9IiM0QTkxOUIiIGQ9Ik0xOS44NDQ2NzggMTAyMy45OTk2MDVhMTkuNzMwMjQzIDE5LjczMDI0MyAwIDAgMS0xNC4wMDg0NzItNS43MjE3NyAxOS43MzAyNDMgMTkuNzMwMjQzIDAgMCAxIDAtMjguMDE2OTQ1bDEyMC41NTE3ODQtMTIwLjM1NDQ4MWExOS43MzAyNDMgMTkuNzMwMjQzIDAgMCAxIDI3LjgxOTY0MiAwIDE5LjczMDI0MyAxOS43MzAyNDMgMCAwIDEgMCAyNy44MTk2NDJsLTEyMC4zNTQ0ODEgMTIwLjU1MTc4NGExOS43MzAyNDMgMTkuNzMwMjQzIDAgMCAxLTE0LjAwODQ3MyA1LjcyMTc3ek03ODUuMTgwOCA0MzAuOTA4NTA0YTE5LjczMDI0MyAxOS43MzAyNDMgMCAwIDEtMTQuMDA4NDczLTUuNzIxNzdsLTE3Mi4yNDUwMi0xNzIuMjQ1MDJhMTkuNzMwMjQzIDE5LjczMDI0MyAwIDAgMSAwLTI4LjAxNjk0NWw5Ny4wNzI3OTUtOTYuODc1NDkzYTE5LjczMDI0MyAxOS43MzAyNDMgMCAwIDEgMjcuODE5NjQyIDBsMTcyLjI0NTAyMSAxNzIuMjQ1MDIxYTE5LjczMDI0MyAxOS43MzAyNDMgMCAwIDEgMCAyNy44MTk2NDJsLTk2Ljg3NTQ5MyA5Ny4wNzI3OTVhMTkuNzMwMjQzIDE5LjczMDI0MyAwIDAgMS0xNC4wMDg0NzIgNS43MjE3N3ogbS0xNDQuNDI1Mzc4LTE5MS45NzUyNjNsMTQ0LjQyNTM3OCAxNDQuNDI1Mzc4IDY5LjA1NTg1LTY5LjA1NTg1TDcxMC40MDMxNzkgMTY5Ljg3NzM5MXoiLz48L3N2Zz4=" parent="1" vertex="1">
          <mxGeometry x="249" y="26" width="51" height="51" as="geometry" />
        </mxCell>
      </root>
    </mxGraphModel>
  </diagram>
</mxfile>
